<?xml version="1.0" encoding="iso-8859-1"?>
<!-- Uploaded to: SVG Repo, www.svgrepo.com, Generator: SVG Repo Mixer Tools -->
<svg fill="#cc66ff" height="800px" width="800px" version="1.1" id="Layer_1" xmlns="http://www.w3.org/2000/svg" xmlns:xlink="http://www.w3.org/1999/xlink" 
	 viewBox="0 0 512.002 512.002" xml:space="preserve">
<g>
	<g>
		<path d="M368.51,235.569h-6.354c-1.481,0-2.88-0.072-4.158-0.215c-0.041-0.004-0.081-0.008-0.122-0.013
			c-14.496-1.449-26.952-10.027-33.319-22.94c-6.203-12.601-15.767-23.253-27.65-30.797c-12.209-7.771-26.354-11.878-40.906-11.878
			c-29.329,0-55.603,16.35-68.571,42.678c-6.919,14.071-21.678,23.164-37.597,23.164h-6.34c-5.833,0-10.561,4.729-10.561,10.561
			s4.728,10.561,10.561,10.561h12.47c21.761,0,43.178,9.826,58.75,26.948c1.806,1.99,4.188,5.39,6.711,8.989
			c2.303,3.285,4.913,7.011,7.68,10.509c6.348,8.025,15.142,17.236,26.897,17.236c15.118,0,25.874-15.345,34.515-27.674
			c2.541-3.624,4.94-7.048,6.768-9.055c15.565-17.129,36.981-26.952,58.755-26.952h0.757c0.528,0,1.043-0.052,1.551-0.127
			c1.241,0.076,2.506,0.127,3.807,0.127h6.354c5.833,0,10.561-4.729,10.561-10.561S374.343,235.569,368.51,235.569z M281.66,269.429
			c-2.728,2.995-5.502,6.953-8.44,11.145c-3.395,4.845-7.245,10.336-11.01,14.221c-4.268,4.405-6.191,4.456-6.21,4.456
			c-0.125,0-3.122-0.106-10.332-9.218c-2.387-3.017-4.707-6.327-6.949-9.527c-2.915-4.159-5.668-8.087-8.375-11.07
			c-11.272-12.394-25.048-21.737-39.992-27.438c6.625-5.501,12.141-12.361,16.026-20.264c9.384-19.049,28.398-30.884,49.62-30.884
			c10.528,0,20.751,2.965,29.574,8.581c8.615,5.47,15.542,13.182,20.035,22.307c3.923,7.95,9.367,14.811,15.917,20.299
			C306.623,247.742,292.893,257.068,281.66,269.429z"/>
	</g>
</g>
<g>
	<g>
		<path d="M294.996,7.072c-0.587-0.1-1.177-0.199-1.769-0.295c-5.758-0.934-11.185,2.966-12.124,8.722
			c-0.94,5.755,2.964,11.183,8.721,12.122c0.546,0.09,1.088,0.181,1.628,0.272c0.6,0.102,1.195,0.152,1.784,0.152
			c5.054,0,9.523-3.64,10.399-8.791C304.614,13.505,300.747,8.051,294.996,7.072z"/>
	</g>
</g>
<g>
	<g>
		<path d="M481.497,186.463c-0.722-4.227-3.93-7.598-8.116-8.53l-58.706-13.068c0.345-6.129,1.127-15.244,2.883-25.916h34.382
			c5.833,0,10.561-4.729,10.561-10.561s-4.728-10.561-10.561-10.561h-29.915c6.525-24.95,19.005-54.487,42.848-73.812
			c3.675-2.978,4.921-8.038,3.049-12.383c-1.872-4.346-6.414-6.921-11.095-6.289l-35.244,4.702L420.316,9.9
			c-0.237-3.763-2.462-7.114-5.838-8.793c-3.374-1.679-7.39-1.43-10.534,0.653l-42.015,27.835
			c-6.368-3.449-17.484-8.871-32.405-13.858c-5.53-1.85-11.514,1.137-13.363,6.668c-1.848,5.532,1.137,11.515,6.669,13.363
			c21.076,7.044,33.628,15.034,33.734,15.103c3.527,2.286,8.075,2.266,11.578-0.058l32.241-21.36l0.831,13.22
			c0.184,2.923,1.573,5.638,3.837,7.498c2.264,1.859,5.201,2.694,8.1,2.307l16.94-2.26c-15.878,21.425-24.808,46.467-29.831,67.608
			h-84.883c-5.833,0-10.561,4.729-10.561,10.561s4.728,10.561,10.561,10.561h18.896v11.882c0,5.832,4.728,10.561,10.561,10.561
			c5.833,0,10.561-4.729,10.561-10.561v-11.882h40.778c-2.999,19.758-2.896,33.739-2.888,34.438
			c0.053,4.905,3.477,9.129,8.266,10.193l42.033,9.356l-21.59,13.453c-2.882,1.795-4.725,4.867-4.952,8.255s1.188,6.679,3.804,8.844
			l19.16,15.857l-23.085,11.547c-2.708,1.354-4.704,3.806-5.481,6.731c-0.778,2.926-0.263,6.045,1.414,8.565l9.45,14.197
			c-58.926,19.791-98.995,63.007-116.299,125.764c-9.747,35.353-9.851,67.901-8.971,84.731h-82.06
			c0.303-5.788,0.489-13.436,0.207-22.418h18.38c5.833,0,10.561-4.729,10.561-10.561s-4.728-10.561-10.561-10.561h-19.835
			c-0.781-7.326-1.909-15.109-3.492-23.174h23.327c5.833,0,10.561-4.729,10.561-10.561s-4.728-10.561-10.561-10.561H205.1
			c-17.761-61.071-57.454-103.199-115.4-122.66l9.45-14.197c1.677-2.521,2.192-5.639,1.414-8.565
			c-0.777-2.926-2.773-5.378-5.481-6.731l-23.085-11.547l19.16-15.857c2.616-2.165,4.031-5.456,3.804-8.844
			c-0.227-3.388-2.07-6.46-4.952-8.255l-21.59-13.453l42.033-9.356c4.788-1.066,8.212-5.289,8.266-10.193
			c0.007-0.699,0.111-14.682-2.888-34.438h40.778v11.882c0,5.832,4.728,10.561,10.561,10.561s10.561-4.729,10.561-10.561v-11.882
			h18.896c5.833,0,10.561-4.729,10.561-10.561c0-5.832-4.728-10.561-10.561-10.561h-84.882
			C106.72,96.684,97.79,71.643,81.913,50.218l16.94,2.26c2.9,0.384,5.836-0.449,8.1-2.308c2.263-1.86,3.652-4.575,3.837-7.498
			l0.831-13.22l32.241,21.36c3.491,2.315,8.038,2.334,11.56,0.069c0.404-0.26,41.17-26.014,100.581-26.014
			c5.833,0,10.561-4.729,10.561-10.561s-4.728-10.561-10.561-10.561c-52.662,0-91.488,17.982-105.939,25.839L108.061,1.758
			c-3.144-2.084-7.159-2.332-10.534-0.653c-3.376,1.679-5.601,5.03-5.838,8.793l-1.267,20.146l-35.245-4.702
			c-4.69-0.633-9.223,1.944-11.095,6.289c-1.872,4.345-0.626,9.404,3.049,12.383c23.843,19.324,36.321,48.859,42.848,73.812H60.063
			c-5.833,0-10.561,4.729-10.561,10.561s4.728,10.561,10.561,10.561h34.382c1.756,10.672,2.538,19.788,2.883,25.916l-58.707,13.07
			c-4.186,0.931-7.394,4.302-8.116,8.53c-0.722,4.228,1.185,8.472,4.825,10.741l31.069,19.36l-20.351,16.842
			c-2.75,2.276-4.165,5.787-3.76,9.335c0.406,3.547,2.575,6.65,5.768,8.247l26.887,13.449l-10.742,16.139
			c-1.891,2.842-2.293,6.423-1.077,9.613c1.216,3.19,3.898,5.595,7.201,6.457c59.536,15.537,98.273,54.058,115.137,114.491
			c12.888,46.188,7.631,88.518,7.578,88.93c-0.396,3.014,0.526,6.053,2.531,8.34c2.004,2.285,4.898,3.596,7.94,3.596h104.975
			c3.04,0,5.934-1.311,7.94-3.596c2.005-2.286,2.927-5.326,2.531-8.34c-0.055-0.417-5.322-42.152,7.404-88.302
			c16.764-60.795,55.56-99.526,115.311-115.12c3.303-0.862,5.986-3.267,7.201-6.457c1.216-3.19,0.814-6.77-1.077-9.613
			l-10.742-16.139l26.887-13.449c3.193-1.597,5.363-4.698,5.768-8.247c0.406-3.546-1.01-7.059-3.76-9.335L445.6,216.564l31.07-19.36
			C480.312,194.934,482.219,190.691,481.497,186.463z"/>
	</g>
</g>
</svg>
